<mxfile host="Electron" agent="Mozilla/5.0 (X11; Linux x86_64) AppleWebKit/537.36 (KHTML, like Gecko) draw.io/24.7.17 Chrome/128.0.6613.36 Electron/32.0.1 Safari/537.36" version="24.7.17">
  <diagram name="Page-1" id="6x4ggpsZWwyDh2Z4noXn">
    <mxGraphModel dx="1462" dy="710" grid="1" gridSize="10" guides="1" tooltips="1" connect="1" arrows="1" fold="1" page="1" pageScale="1" pageWidth="1169" pageHeight="827" math="0" shadow="0">
      <root>
        <mxCell id="0" />
        <mxCell id="1" parent="0" />
        <mxCell id="ro8ZR1RueZ_laz-nHLyo-9" style="edgeStyle=orthogonalEdgeStyle;rounded=0;sketch=1;hachureGap=4;jiggle=2;curveFitting=1;orthogonalLoop=1;jettySize=auto;html=1;strokeColor=#000000;fontFamily=Architects Daughter;fontSource=https%3A%2F%2Ffonts.googleapis.com%2Fcss%3Ffamily%3DArchitects%2BDaughter;fontColor=#000000;fillColor=#f5f5f5;shadow=1;" parent="1" source="ro8ZR1RueZ_laz-nHLyo-1" target="ro8ZR1RueZ_laz-nHLyo-3" edge="1">
          <mxGeometry relative="1" as="geometry" />
        </mxCell>
        <mxCell id="ro8ZR1RueZ_laz-nHLyo-1" value="Request" style="rounded=0;whiteSpace=wrap;html=1;sketch=1;hachureGap=4;jiggle=2;curveFitting=1;fontFamily=Architects Daughter;fontSource=https%3A%2F%2Ffonts.googleapis.com%2Fcss%3Ffamily%3DArchitects%2BDaughter;labelBackgroundColor=none;fillColor=#D9D9D9;strokeColor=#000000;fontColor=#000000;fontStyle=1;fontSize=22;shadow=1;" parent="1" vertex="1">
          <mxGeometry x="150" y="320" width="120" height="40" as="geometry" />
        </mxCell>
        <mxCell id="ro8ZR1RueZ_laz-nHLyo-18" value="" style="edgeStyle=orthogonalEdgeStyle;rounded=0;sketch=1;hachureGap=4;jiggle=2;curveFitting=1;orthogonalLoop=1;jettySize=auto;html=1;strokeColor=#000000;fontFamily=Architects Daughter;fontSource=https%3A%2F%2Ffonts.googleapis.com%2Fcss%3Ffamily%3DArchitects%2BDaughter;fontColor=#1D3557;fillColor=#A8DADC;shadow=1;" parent="1" source="ro8ZR1RueZ_laz-nHLyo-8" target="ro8ZR1RueZ_laz-nHLyo-2" edge="1">
          <mxGeometry relative="1" as="geometry" />
        </mxCell>
        <mxCell id="ro8ZR1RueZ_laz-nHLyo-2" value="Response" style="rounded=0;whiteSpace=wrap;html=1;sketch=1;hachureGap=4;jiggle=2;curveFitting=1;fontFamily=Architects Daughter;fontSource=https%3A%2F%2Ffonts.googleapis.com%2Fcss%3Ffamily%3DArchitects%2BDaughter;labelBackgroundColor=none;fillColor=#D9D9D9;strokeColor=#000000;fontColor=#000000;fontStyle=1;fontSize=22;shadow=1;" parent="1" vertex="1">
          <mxGeometry x="790" y="320" width="120" height="40" as="geometry" />
        </mxCell>
        <mxCell id="ro8ZR1RueZ_laz-nHLyo-10" style="edgeStyle=orthogonalEdgeStyle;rounded=0;sketch=1;hachureGap=4;jiggle=2;curveFitting=1;orthogonalLoop=1;jettySize=auto;html=1;strokeColor=#000000;fontFamily=Architects Daughter;fontSource=https%3A%2F%2Ffonts.googleapis.com%2Fcss%3Ffamily%3DArchitects%2BDaughter;fontColor=#000000;fillColor=#f5f5f5;shadow=1;" parent="1" source="ro8ZR1RueZ_laz-nHLyo-3" target="ro8ZR1RueZ_laz-nHLyo-7" edge="1">
          <mxGeometry relative="1" as="geometry" />
        </mxCell>
        <mxCell id="ro8ZR1RueZ_laz-nHLyo-3" value="Router" style="rounded=0;whiteSpace=wrap;html=1;sketch=1;hachureGap=4;jiggle=2;curveFitting=1;fontFamily=Architects Daughter;fontSource=https%3A%2F%2Ffonts.googleapis.com%2Fcss%3Ffamily%3DArchitects%2BDaughter;labelBackgroundColor=none;fillColor=#D9D9D9;strokeColor=#000000;fontColor=#000000;fontStyle=1;fontSize=22;shadow=1;" parent="1" vertex="1">
          <mxGeometry x="310" y="320" width="120" height="40" as="geometry" />
        </mxCell>
        <mxCell id="ro8ZR1RueZ_laz-nHLyo-11" style="edgeStyle=orthogonalEdgeStyle;rounded=0;sketch=1;hachureGap=4;jiggle=2;curveFitting=1;orthogonalLoop=1;jettySize=auto;html=1;strokeColor=#000000;fontFamily=Architects Daughter;fontSource=https%3A%2F%2Ffonts.googleapis.com%2Fcss%3Ffamily%3DArchitects%2BDaughter;fontColor=#000000;fillColor=#f5f5f5;shadow=1;" parent="1" source="ro8ZR1RueZ_laz-nHLyo-7" target="ro8ZR1RueZ_laz-nHLyo-8" edge="1">
          <mxGeometry relative="1" as="geometry" />
        </mxCell>
        <mxCell id="ro8ZR1RueZ_laz-nHLyo-7" value="Controller" style="rounded=0;whiteSpace=wrap;html=1;sketch=1;hachureGap=4;jiggle=2;curveFitting=1;fontFamily=Architects Daughter;fontSource=https%3A%2F%2Ffonts.googleapis.com%2Fcss%3Ffamily%3DArchitects%2BDaughter;labelBackgroundColor=none;fillColor=#D9D9D9;strokeColor=#000000;fontColor=#000000;fontStyle=1;fontSize=22;shadow=1;" parent="1" vertex="1">
          <mxGeometry x="470" y="320" width="120" height="40" as="geometry" />
        </mxCell>
        <mxCell id="ro8ZR1RueZ_laz-nHLyo-8" value="View" style="rounded=0;whiteSpace=wrap;html=1;sketch=1;hachureGap=4;jiggle=2;curveFitting=1;fontFamily=Architects Daughter;fontSource=https%3A%2F%2Ffonts.googleapis.com%2Fcss%3Ffamily%3DArchitects%2BDaughter;labelBackgroundColor=none;fillColor=#D9D9D9;strokeColor=#000000;fontColor=#000000;fontStyle=1;fontSize=22;shadow=1;" parent="1" vertex="1">
          <mxGeometry x="630" y="320" width="120" height="40" as="geometry" />
        </mxCell>
        <mxCell id="ro8ZR1RueZ_laz-nHLyo-13" value="Model" style="rounded=0;whiteSpace=wrap;html=1;sketch=1;hachureGap=4;jiggle=2;curveFitting=1;fontFamily=Architects Daughter;fontSource=https%3A%2F%2Ffonts.googleapis.com%2Fcss%3Ffamily%3DArchitects%2BDaughter;labelBackgroundColor=none;fillColor=#D9D9D9;strokeColor=#000000;fontColor=#000000;fontStyle=1;fontSize=22;shadow=1;" parent="1" vertex="1">
          <mxGeometry x="470" y="400" width="120" height="40" as="geometry" />
        </mxCell>
        <mxCell id="ro8ZR1RueZ_laz-nHLyo-19" style="edgeStyle=orthogonalEdgeStyle;rounded=0;sketch=1;hachureGap=4;jiggle=2;curveFitting=1;orthogonalLoop=1;jettySize=auto;html=1;strokeColor=#000000;fontFamily=Architects Daughter;fontSource=https%3A%2F%2Ffonts.googleapis.com%2Fcss%3Ffamily%3DArchitects%2BDaughter;fontColor=#1D3557;fillColor=#A8DADC;shadow=1;" parent="1" source="ro8ZR1RueZ_laz-nHLyo-14" target="ro8ZR1RueZ_laz-nHLyo-13" edge="1">
          <mxGeometry relative="1" as="geometry" />
        </mxCell>
        <mxCell id="ro8ZR1RueZ_laz-nHLyo-14" value="Database" style="rounded=0;whiteSpace=wrap;html=1;sketch=1;hachureGap=4;jiggle=2;curveFitting=1;fontFamily=Architects Daughter;fontSource=https%3A%2F%2Ffonts.googleapis.com%2Fcss%3Ffamily%3DArchitects%2BDaughter;labelBackgroundColor=none;fillColor=#D9D9D9;strokeColor=#000000;fontColor=#000000;fontStyle=1;fontSize=22;shadow=1;" parent="1" vertex="1">
          <mxGeometry x="470" y="480" width="120" height="40" as="geometry" />
        </mxCell>
        <mxCell id="ro8ZR1RueZ_laz-nHLyo-17" value="" style="edgeStyle=orthogonalEdgeStyle;rounded=0;sketch=1;hachureGap=4;jiggle=2;curveFitting=1;orthogonalLoop=1;jettySize=auto;html=1;strokeColor=#000000;fontFamily=Architects Daughter;fontSource=https%3A%2F%2Ffonts.googleapis.com%2Fcss%3Ffamily%3DArchitects%2BDaughter;fontColor=#1D3557;fillColor=#A8DADC;shadow=1;" parent="1" source="ro8ZR1RueZ_laz-nHLyo-13" target="ro8ZR1RueZ_laz-nHLyo-7" edge="1">
          <mxGeometry relative="1" as="geometry">
            <mxPoint x="600" y="350" as="sourcePoint" />
            <mxPoint x="640" y="350" as="targetPoint" />
          </mxGeometry>
        </mxCell>
        <mxCell id="ro8ZR1RueZ_laz-nHLyo-22" style="edgeStyle=orthogonalEdgeStyle;rounded=0;sketch=1;hachureGap=4;jiggle=2;curveFitting=1;orthogonalLoop=1;jettySize=auto;html=1;strokeColor=#000000;fontFamily=Architects Daughter;fontSource=https%3A%2F%2Ffonts.googleapis.com%2Fcss%3Ffamily%3DArchitects%2BDaughter;fontColor=#1D3557;fillColor=#A8DADC;shadow=1;" parent="1" source="ro8ZR1RueZ_laz-nHLyo-20" target="ro8ZR1RueZ_laz-nHLyo-8" edge="1">
          <mxGeometry relative="1" as="geometry" />
        </mxCell>
        <mxCell id="ro8ZR1RueZ_laz-nHLyo-20" value="Template" style="rounded=0;whiteSpace=wrap;html=1;sketch=1;hachureGap=4;jiggle=2;curveFitting=1;fontFamily=Architects Daughter;fontSource=https%3A%2F%2Ffonts.googleapis.com%2Fcss%3Ffamily%3DArchitects%2BDaughter;labelBackgroundColor=none;fillColor=#D9D9D9;strokeColor=#000000;fontColor=#000000;fontStyle=1;fontSize=22;shadow=1;" parent="1" vertex="1">
          <mxGeometry x="630" y="400" width="120" height="40" as="geometry" />
        </mxCell>
        <mxCell id="ro8ZR1RueZ_laz-nHLyo-23" value="" style="rounded=0;whiteSpace=wrap;html=1;sketch=1;hachureGap=4;jiggle=2;curveFitting=1;strokeColor=#006633;fontFamily=Architects Daughter;fontSource=https%3A%2F%2Ffonts.googleapis.com%2Fcss%3Ffamily%3DArchitects%2BDaughter;fontColor=#1D3557;fillColor=none;" parent="1" vertex="1">
          <mxGeometry x="450" y="390" width="150" height="150" as="geometry" />
        </mxCell>
        <mxCell id="ro8ZR1RueZ_laz-nHLyo-24" value="" style="rounded=0;whiteSpace=wrap;html=1;sketch=1;hachureGap=4;jiggle=2;curveFitting=1;strokeColor=#285EA3;fontFamily=Architects Daughter;fontSource=https%3A%2F%2Ffonts.googleapis.com%2Fcss%3Ffamily%3DArchitects%2BDaughter;fontColor=#1D3557;fillColor=none;" parent="1" vertex="1">
          <mxGeometry x="450" y="300" width="150" height="80" as="geometry" />
        </mxCell>
        <mxCell id="ro8ZR1RueZ_laz-nHLyo-25" value="" style="rounded=0;whiteSpace=wrap;html=1;sketch=1;hachureGap=4;jiggle=2;curveFitting=1;strokeColor=#994C00;fontFamily=Architects Daughter;fontSource=https%3A%2F%2Ffonts.googleapis.com%2Fcss%3Ffamily%3DArchitects%2BDaughter;fontColor=default;fillColor=none;" parent="1" vertex="1">
          <mxGeometry x="620" y="300" width="140" height="160" as="geometry" />
        </mxCell>
        <mxCell id="ro8ZR1RueZ_laz-nHLyo-26" value="&lt;b style=&quot;font-size: 24px;&quot;&gt;C: Controller&lt;/b&gt;" style="text;html=1;align=center;verticalAlign=middle;whiteSpace=wrap;rounded=0;fontFamily=Architects Daughter;fontSource=https%3A%2F%2Ffonts.googleapis.com%2Fcss%3Ffamily%3DArchitects%2BDaughter;fontColor=#285EA3;fontSize=24;" parent="1" vertex="1">
          <mxGeometry x="500" y="240" width="60" height="50" as="geometry" />
        </mxCell>
        <mxCell id="ro8ZR1RueZ_laz-nHLyo-27" value="&lt;b style=&quot;font-size: 24px;&quot;&gt;V: View&lt;/b&gt;" style="text;html=1;align=center;verticalAlign=middle;whiteSpace=wrap;rounded=0;fontFamily=Architects Daughter;fontSource=https%3A%2F%2Ffonts.googleapis.com%2Fcss%3Ffamily%3DArchitects%2BDaughter;fontColor=#994C00;fontSize=24;labelBackgroundColor=none;" parent="1" vertex="1">
          <mxGeometry x="660" y="240" width="60" height="50" as="geometry" />
        </mxCell>
        <mxCell id="ro8ZR1RueZ_laz-nHLyo-28" value="&lt;b style=&quot;font-size: 24px;&quot;&gt;M:&lt;br&gt;Model&lt;/b&gt;" style="text;html=1;align=center;verticalAlign=middle;whiteSpace=wrap;rounded=0;fontFamily=Architects Daughter;fontSource=https%3A%2F%2Ffonts.googleapis.com%2Fcss%3Ffamily%3DArchitects%2BDaughter;fontColor=#006633;fontSize=24;" parent="1" vertex="1">
          <mxGeometry x="380" y="430" width="60" height="50" as="geometry" />
        </mxCell>
      </root>
    </mxGraphModel>
  </diagram>
</mxfile>
